<svg xmlns="http://www.w3.org/2000/svg" xmlns:xlink="http://www.w3.org/1999/xlink" width="250" zoomAndPan="magnify" viewBox="0 0 187.5 104.249996" height="139" preserveAspectRatio="xMidYMid meet" version="1.0"><defs><clipPath id="50899c6915"><path d="M 52.753906 5.472656 L 130.199219 5.472656 L 130.199219 100 L 52.753906 100 Z M 52.753906 5.472656 " clip-rule="nonzero"/></clipPath></defs><path fill="#ffffff" d="M 71.339844 51.320312 C 71.339844 51.628906 71.089844 51.878906 70.78125 51.878906 L 65.925781 51.878906 C 65.617188 51.878906 65.367188 51.628906 65.367188 51.320312 L 65.367188 46.464844 C 65.367188 46.15625 65.617188 45.90625 65.925781 45.90625 L 70.78125 45.90625 C 71.089844 45.90625 71.339844 46.15625 71.339844 46.464844 Z M 70.78125 43.867188 L 65.925781 43.867188 C 64.492188 43.867188 63.324219 45.03125 63.324219 46.464844 L 63.324219 51.320312 C 63.324219 52.753906 64.492188 53.921875 65.925781 53.921875 L 70.78125 53.921875 C 72.214844 53.921875 73.378906 52.753906 73.378906 51.320312 L 73.378906 46.464844 C 73.378906 45.03125 72.214844 43.867188 70.78125 43.867188 " fill-opacity="1" fill-rule="nonzero"/><path fill="#ffffff" d="M 78.214844 47.875 C 77.652344 47.875 77.195312 48.328125 77.195312 48.894531 C 77.195312 49.457031 77.652344 49.914062 78.214844 49.914062 L 111.96875 49.914062 C 112.53125 49.914062 112.988281 49.457031 112.988281 48.894531 C 112.988281 48.328125 112.53125 47.875 111.96875 47.875 L 78.214844 47.875 " fill-opacity="1" fill-rule="nonzero"/><path fill="#ffffff" d="M 71.339844 66.734375 C 71.339844 67.042969 71.089844 67.292969 70.78125 67.292969 L 65.925781 67.292969 C 65.617188 67.292969 65.367188 67.042969 65.367188 66.734375 L 65.367188 61.878906 C 65.367188 61.570312 65.617188 61.316406 65.925781 61.316406 L 70.78125 61.316406 C 71.089844 61.316406 71.339844 61.570312 71.339844 61.878906 Z M 70.78125 59.277344 L 65.925781 59.277344 C 64.492188 59.277344 63.324219 60.445312 63.324219 61.878906 L 63.324219 66.734375 C 63.324219 68.167969 64.492188 69.332031 65.925781 69.332031 L 70.78125 69.332031 C 72.214844 69.332031 73.378906 68.167969 73.378906 66.734375 L 73.378906 61.878906 C 73.378906 60.445312 72.214844 59.277344 70.78125 59.277344 " fill-opacity="1" fill-rule="nonzero"/><path fill="#ffffff" d="M 111.96875 63.285156 L 78.214844 63.285156 C 77.652344 63.285156 77.195312 63.742188 77.195312 64.304688 C 77.195312 64.867188 77.652344 65.324219 78.214844 65.324219 L 111.96875 65.324219 C 112.53125 65.324219 112.988281 64.867188 112.988281 64.304688 C 112.988281 63.742188 112.53125 63.285156 111.96875 63.285156 " fill-opacity="1" fill-rule="nonzero"/><path fill="#ffffff" d="M 71.339844 82.144531 C 71.339844 82.453125 71.089844 82.703125 70.78125 82.703125 L 65.925781 82.703125 C 65.617188 82.703125 65.367188 82.453125 65.367188 82.144531 L 65.367188 77.289062 C 65.367188 76.980469 65.617188 76.730469 65.925781 76.730469 L 70.78125 76.730469 C 71.089844 76.730469 71.339844 76.980469 71.339844 77.289062 Z M 70.78125 74.6875 L 65.925781 74.6875 C 64.492188 74.6875 63.324219 75.855469 63.324219 77.289062 L 63.324219 82.144531 C 63.324219 83.578125 64.492188 84.746094 65.925781 84.746094 L 70.78125 84.746094 C 72.214844 84.746094 73.378906 83.578125 73.378906 82.144531 L 73.378906 77.289062 C 73.378906 75.855469 72.214844 74.6875 70.78125 74.6875 " fill-opacity="1" fill-rule="nonzero"/><path fill="#ffffff" d="M 111.96875 78.695312 L 78.214844 78.695312 C 77.652344 78.695312 77.195312 79.152344 77.195312 79.714844 C 77.195312 80.28125 77.652344 80.738281 78.214844 80.738281 L 111.96875 80.738281 C 112.53125 80.738281 112.988281 80.28125 112.988281 79.714844 C 112.988281 79.152344 112.53125 78.695312 111.96875 78.695312 " fill-opacity="1" fill-rule="nonzero"/><g clip-path="url(#50899c6915)"><path fill="#ffffff" d="M 114.160156 35.148438 C 113.578125 36.015625 112.652344 36.59375 111.621094 36.738281 C 111.453125 36.761719 111.285156 36.773438 111.117188 36.773438 C 110.253906 36.773438 109.414062 36.46875 108.746094 35.902344 L 99.214844 27.808594 C 97.671875 26.496094 97.484375 24.1875 98.792969 22.644531 C 100.101562 21.105469 102.414062 20.914062 103.957031 22.222656 L 110.359375 27.660156 L 118.933594 14.878906 C 120.0625 13.199219 122.335938 12.75 124.019531 13.878906 C 125.699219 15.007812 126.144531 17.28125 125.019531 18.960938 Z M 119.472656 89.109375 C 119.472656 92.773438 116.496094 95.753906 112.832031 95.753906 L 63.484375 95.753906 C 59.820312 95.753906 56.839844 92.773438 56.839844 89.109375 L 56.839844 40.117188 L 57.683594 39.273438 L 67.328125 39.273438 C 72.125 39.273438 76.011719 35.382812 76.011719 30.585938 L 76.011719 20.945312 L 76.859375 20.097656 L 93.820312 20.097656 C 93.539062 21.378906 93.382812 22.707031 93.382812 24.074219 C 93.382812 34.339844 101.703125 42.660156 111.96875 42.660156 C 114.640625 42.660156 117.175781 42.085938 119.472656 41.070312 Z M 130.550781 24.074219 C 130.550781 13.8125 122.234375 5.492188 111.96875 5.492188 C 104.59375 5.492188 98.242188 9.796875 95.242188 16.015625 L 76.011719 16.015625 C 75.472656 16.015625 74.953125 16.230469 74.570312 16.617188 L 53.355469 37.828125 C 52.972656 38.210938 52.757812 38.730469 52.757812 39.273438 L 52.757812 89.109375 C 52.757812 95.023438 57.570312 99.832031 63.484375 99.832031 L 112.832031 99.832031 C 118.746094 99.832031 123.554688 95.023438 123.554688 89.109375 L 123.554688 38.589844 C 127.816406 35.1875 130.550781 29.953125 130.550781 24.074219 " fill-opacity="1" fill-rule="nonzero"/></g></svg>